<?xml version="1.0" standalone="no"?>
<!DOCTYPE svg PUBLIC "-//W3C//DTD SVG 20010904//EN"
 "http://www.w3.org/TR/2001/REC-SVG-20010904/DTD/svg10.dtd">
<svg version="1.0" xmlns="http://www.w3.org/2000/svg"
 width="300.000000pt" height="300.000000pt" viewBox="0 0 300.000000 300.000000"
 preserveAspectRatio="xMidYMid meet">

<g transform="translate(0.000000,300.000000) scale(0.100000,-0.100000)"
fill="#000000" stroke="none">
<path d="M115 2993 c-70 -18 -122 -103 -110 -182 6 -45 17 -57 638 -678 l632
-633 -632 -632 c-621 -623 -632 -634 -638 -680 -4 -25 -4 -57 0 -70 24 -75
104 -125 184 -113 45 6 57 17 679 638 l632 632 633 -632 c686 -684 651 -654
743 -637 49 9 109 69 118 118 17 92 47 57 -637 744 l-632 632 632 633 c625
626 632 632 638 679 16 107 -76 199 -183 183 -47 -6 -53 -13 -680 -638 l-632
-632 -628 628 c-638 638 -651 650 -717 646 -11 -1 -29 -4 -40 -6z"/>
</g>
</svg>
