<?xml version="1.0" standalone="no"?>
<!DOCTYPE svg PUBLIC "-//W3C//DTD SVG 20010904//EN"
 "http://www.w3.org/TR/2001/REC-SVG-20010904/DTD/svg10.dtd">
<svg version="1.0" xmlns="http://www.w3.org/2000/svg"
 width="240.000000pt" height="240.000000pt" viewBox="0 0 240.000000 240.000000"
 preserveAspectRatio="xMidYMid meet">
<g transform="translate(0.000000,240.000000) scale(0.050000,-0.050000) "
fill="#f05514" stroke="none">
<path d="M970 4570 c-811 -168 -1192 -1019 -817 -1830 199 -431 514 -809 1500
-1800 l746 -750 365 365 365 365 -138 139 -138 139 -217 -209 c-119 -115 -227
-209 -240 -209 -69 0 -1332 1319 -1584 1654 -520 693 -543 1314 -59 1620 552
351 1165 71 1577 -719 33 -63 65 -115 70 -115 6 0 37 52 70 115 327 626 747
922 1208 851 571 -89 859 -603 651 -1163 l-55 -147 144 -143 c169 -167 162
-170 264 96 339 879 -137 1688 -1037 1763 -461 38 -986 -211 -1195 -567 -49
-82 -49 -82 -116 24 -252 399 -850 627 -1364 521z"/>
<path d="M3600 2300 l0 -300 -300 0 -300 0 0 -200 0 -200 300 0 300 0 0 -300
0 -300 200 0 200 0 0 300 0 300 300 0 300 0 0 200 0 200 -300 0 -300 0 0 300
0 300 -200 0 -200 0 0 -300z"/>
</g>
</svg>
